<svg width="343" height="210" viewBox="0 0 343 210" fill="none" xmlns="http://www.w3.org/2000/svg">
<mask id="mask0_1_235" style="mask-type:luminance" maskUnits="userSpaceOnUse" x="0" y="0" width="343" height="216">
<path d="M323.913 0.500005L323.913 0.500005C334.176 0.492872 342.5 8.81621 342.5 19.0873V196.286C342.5 206.549 334.176 214.873 323.913 214.873H19.0873C8.82367 214.873 0.5 206.549 0.5 196.286V19.0873C0.5 8.82372 8.82368 0.500005 19.0873 0.500005L323.913 0.500005Z" fill="white" stroke="white"/>
</mask>
<g mask="url(#mask0_1_235)">
<path d="M71.6196 90.5349C59.051 90.5349 48.8188 80.3102 48.8188 67.7343C48.8188 55.1583 59.0437 44.9336 71.6196 44.9336C84.1882 44.9336 94.4203 55.1583 94.4203 67.7343C94.4203 80.3102 84.1882 90.5349 71.6196 90.5349ZM71.6196 45.4023C59.3073 45.4023 49.2876 55.422 49.2876 67.7343C49.2876 80.0465 59.3073 90.0662 71.6196 90.0662C83.9319 90.0662 93.9516 80.0465 93.9516 67.7343C93.9516 55.422 83.9319 45.4023 71.6196 45.4023Z" fill="#0063A9"/>
<path d="M71.7349 92.272C71.4712 92.272 71.2002 92.272 70.9365 92.2647C56.6321 91.8985 45.4331 80.9265 45.4331 67.2959C45.4331 60.8138 49.315 54.7127 56.3538 50.113C62.5428 46.0699 70.4531 43.6602 77.5138 43.6602C83.8933 43.6602 89.8701 46.1358 94.3526 50.633C98.7838 55.0715 101.208 60.9384 101.186 67.1421C101.15 72.9796 98.4615 78.7806 93.6201 83.4681C87.8192 89.0859 79.8796 92.2647 71.7349 92.272ZM77.5138 44.129C70.541 44.129 62.7259 46.5094 56.6101 50.5012C49.7032 55.013 45.9019 60.9676 45.9019 67.2812C45.9019 80.6555 56.9031 91.4151 70.9365 91.774C79.2351 91.9938 87.3798 88.8296 93.2832 83.1093C98.0294 78.5096 100.666 72.8331 100.703 67.1274C100.725 61.0482 98.3443 55.306 94.0083 50.9554C89.6283 46.5534 83.7615 44.129 77.5138 44.129Z" fill="#0064AA"/>
<path d="M71.9396 94.0148C71.3756 94.0148 70.8117 94.0002 70.255 93.9783C54.178 93.2751 42.0489 81.6074 42.0489 66.8341C42.0489 50.7645 68.9806 42.3635 83.4169 42.3635C90.104 42.3635 96.3591 44.9563 101.025 49.6659C105.558 54.2436 108.027 60.2349 107.968 66.5339C107.917 72.2249 104.994 78.1063 99.7356 83.0942C92.4552 90.0011 82.1717 94.0148 71.9396 94.0148ZM70.2697 93.4948C80.9266 93.9562 91.8106 89.9425 99.3986 82.7426C104.555 77.85 107.426 72.0931 107.477 66.5266C107.536 60.3595 105.119 54.4926 100.673 50.0028C96.1027 45.3884 89.9722 42.8468 83.4096 42.8468C69.1417 42.8468 42.525 51.0868 42.525 66.8341C42.525 81.3437 54.4564 92.7989 70.2697 93.4948Z" fill="#0066AB"/>
<path d="M72.1833 95.773C71.3117 95.773 70.4401 95.751 69.5685 95.6997C51.6531 94.6816 38.6523 82.3474 38.6523 66.3876C38.6523 56.6462 49.1921 50.5305 58.0326 47.1173C68.8361 42.9424 81.5219 41.082 89.3003 41.082C96.2878 41.082 102.806 43.7846 107.648 48.692C112.299 53.4015 114.811 59.5247 114.731 65.9336C114.657 71.5733 111.515 77.572 105.883 82.8236C97.1887 90.9317 84.4809 95.773 72.1833 95.773ZM69.5978 95.2017C82.5326 95.9341 96.3317 91.0562 105.553 82.4574C111.083 77.301 114.174 71.4268 114.24 65.9262C114.32 59.6492 111.859 53.6505 107.304 49.0362C102.557 44.2241 96.1633 41.5727 89.3077 41.5727C81.5731 41.5727 68.9606 43.4257 58.2157 47.5786C49.5144 50.9332 39.1504 56.9245 39.1504 66.3876C39.1504 82.0764 51.9534 94.1982 69.5978 95.2017Z" fill="#0067AC"/>
<path d="M72.4326 97.5301C71.246 97.5301 70.0595 97.4936 68.8876 97.413C49.4048 96.1019 35.2688 82.8595 35.2688 65.9256C35.2688 46.2157 79.8449 39.7849 95.2041 39.7849C102.492 39.7849 109.267 42.5974 114.284 47.7024C119.045 52.5438 121.616 58.8062 121.506 65.3176C121.411 70.9573 118.063 77.0952 112.087 82.5885C102.016 91.8611 86.781 97.5301 72.4326 97.5301ZM95.2114 40.2903C79.9767 40.2903 35.7815 46.6039 35.7815 65.9256C35.7815 82.5812 49.7198 95.6112 68.9316 96.9077C84.1296 97.9184 100.946 92.1688 111.764 82.2223C117.639 76.8169 120.927 70.8108 121.022 65.3102C121.132 58.9307 118.613 52.8002 113.947 48.054C109.003 43.0515 102.36 40.2903 95.2114 40.2903Z" fill="#0069AE"/>
<path d="M72.8642 99.3103C71.2968 99.3103 69.7441 99.2517 68.206 99.1345C58.0397 98.3654 48.8183 94.6299 42.2337 88.6239C35.5539 82.5301 31.8771 74.3047 31.8771 65.4715C31.8771 54.1408 47.0092 47.6148 59.7023 44.1358C73.8237 40.2612 91.0653 38.496 101.1 38.496C108.68 38.496 115.719 41.4184 120.912 46.7213C125.724 51.6286 128.405 58.1838 128.28 64.7171C128.163 70.3935 124.626 76.6779 118.312 82.4202C106.761 92.9234 89.3441 99.3103 72.8642 99.3103ZM101.107 39.016C82.7595 39.016 32.3971 45.2856 32.3971 65.4789C32.3971 74.1656 36.0153 82.2517 42.5853 88.2504C49.082 94.1831 58.1935 97.8599 68.2426 98.6216C88.3113 100.138 107.677 91.3852 117.968 82.0393C124.179 76.3996 127.658 70.2399 127.768 64.71C127.892 58.3158 125.263 51.8923 120.553 47.0802C115.455 41.8799 108.549 39.016 101.107 39.016Z" fill="#006BAF"/>
<path d="M73.3183 101.091C71.3993 101.091 69.4656 101.017 67.532 100.856C44.5482 98.9592 28.5005 84.2226 28.5005 65.0254C28.5005 41.9317 90.428 37.2148 107.01 37.2148C114.884 37.2148 122.186 40.2471 127.563 45.7403C132.485 50.7795 135.224 57.474 135.07 64.1172C134.938 69.8522 131.21 76.305 124.567 82.2817C113.749 92.0011 94.2147 101.091 73.3183 101.091ZM107.003 37.7348C90.5305 37.7348 29.0205 42.3639 29.0205 65.0254C29.0205 83.9369 44.8778 98.4538 67.576 100.329C90.4353 102.211 112.496 92.4259 124.215 81.8861C130.749 76.012 134.418 69.691 134.543 64.1026C134.689 57.6058 132.008 51.0432 127.182 46.1065C121.901 40.7085 114.738 37.7348 107.003 37.7348Z" fill="#006DB0"/>
<path d="M73.8238 102.877C71.5093 102.877 69.1874 102.782 66.851 102.57C42.2777 100.394 25.1094 84.7712 25.1094 64.5706C25.1094 54.1627 37.3118 46.2891 61.365 41.162C80.8039 37.0237 102.909 35.9178 112.899 35.9178C121.073 35.9178 128.632 39.0527 134.184 44.751C139.223 49.922 142.014 56.7556 141.838 63.5013C141.684 69.3169 137.773 75.9454 130.807 82.1491C118.766 92.9013 97.0713 102.877 73.8238 102.877ZM66.8949 102.042C92.5448 104.313 117.301 93.4945 130.456 81.7609C137.304 75.6524 141.157 69.163 141.303 63.494C141.472 56.8874 138.74 50.1929 133.803 45.1244C128.354 39.5286 120.934 36.4525 112.907 36.4525C102.931 36.4525 80.8771 37.5511 61.4822 41.682C45.1342 45.1611 25.6514 51.9581 25.6514 64.5633C25.6441 84.4856 42.6073 99.8962 66.8949 102.042Z" fill="#006EB1"/>
<path d="M74.085 104.657C71.4556 104.657 68.8115 104.54 66.1674 104.291C53.3717 103.097 42.3486 98.6804 34.2844 91.5245C26.0665 84.2295 21.7231 74.7518 21.7231 64.1168C21.7231 53.0424 35.3391 44.8243 62.1903 39.6753C81.6364 35.9545 104.84 34.6289 118.8 34.6289C127.267 34.6289 135.09 37.8736 140.817 43.7697C145.966 49.0725 148.808 56.0452 148.61 62.9008C148.442 68.8189 144.34 75.6161 137.067 82.0615C124.184 93.4655 99.7496 104.657 74.085 104.657ZM66.2187 103.749C94.52 106.393 122.594 94.1467 136.701 81.6586C143.864 75.3157 147.9 68.6505 148.061 62.8935C148.252 56.1844 145.468 49.3509 140.414 44.1579C134.789 38.3717 127.113 35.1856 118.793 35.1856C104.855 35.1856 81.695 36.5039 62.2855 40.2246C35.7273 45.3151 22.2578 53.3573 22.2578 64.1315C22.2578 74.6053 26.5426 83.9438 34.636 91.129C42.5024 98.1018 53.716 102.584 66.2187 103.749Z" fill="#0070B3"/>
<path d="M74.6071 106.451C71.5821 106.451 68.5352 106.311 65.4882 106.011C37.2821 103.257 18.334 86.2427 18.334 63.669C18.334 51.928 33.3709 43.3585 63.0199 38.2022C89.5341 33.5878 119.051 33.3535 124.698 33.3535C133.466 33.3535 141.537 36.708 147.441 42.7945C152.707 48.2292 155.6 55.3413 155.38 62.3068C155.19 68.3274 150.905 75.3221 143.317 81.9946C129.247 94.3581 102.623 106.451 74.6071 106.451ZM124.691 33.9028C119.051 33.9028 89.5781 34.1371 63.1078 38.7441C33.7591 43.8566 18.876 52.243 18.876 63.669C18.876 85.9424 37.6264 102.737 65.5322 105.462C96.5948 108.487 127.438 95.2077 142.943 81.577C150.422 75.0071 154.633 68.1516 154.824 62.2848C155.036 55.4658 152.194 48.5002 147.038 43.1754C141.244 37.1914 133.305 33.9028 124.691 33.9028Z" fill="#0071B4"/>
<path d="M75.1418 108.245C71.7067 108.245 68.2569 108.077 64.8072 107.733C34.9823 104.708 14.9429 86.8214 14.9429 63.215C14.9429 50.8075 31.3934 41.8936 63.8403 36.7153C90.1568 32.5185 119.286 32.0645 130.587 32.0645C139.648 32.0645 147.983 35.5289 154.062 41.8132C159.445 47.3797 162.39 54.6308 162.155 61.7061C161.95 67.844 157.482 75.0291 149.579 81.9359C134.315 95.2663 105.501 108.245 75.1418 108.245ZM64.8658 107.169C98.7117 110.596 132.308 96.2698 149.206 81.5039C156.992 74.6996 161.394 67.6608 161.591 61.6768C161.826 54.748 158.933 47.6506 153.659 42.1939C147.69 36.0195 139.494 32.6211 130.595 32.6211C111.375 32.6211 15.5069 34.0933 15.5069 63.215C15.5069 86.5138 35.3413 104.18 64.8658 107.169Z" fill="#0073B5"/>
<path d="M75.215 110.018C71.5089 110.018 67.8028 109.835 64.1259 109.454C32.6824 106.166 11.5516 87.4079 11.5516 62.7687C11.5516 49.6874 29.4231 40.4293 64.6606 35.2364C89.6587 31.5522 117.513 30.7833 136.483 30.7833C145.837 30.7833 154.428 34.3502 160.683 40.8323C166.176 46.5306 169.179 53.9135 168.923 61.1061C168.696 67.4563 164.169 74.6489 155.827 81.8927C138.856 96.6367 106.937 110.018 75.215 110.018ZM136.491 31.3473C117.543 31.3473 89.7173 32.1162 64.7485 35.8003C29.8333 40.9421 12.123 50.017 12.123 62.7687C12.123 87.1003 33.0414 105.631 64.1846 108.89C67.8467 109.271 71.5382 109.454 75.2297 109.454C106.805 109.454 138.556 96.1459 155.461 81.4605C163.562 74.4218 168.139 67.1853 168.359 61.0841C168.608 54.0527 165.664 46.809 160.28 41.2278C154.135 34.8483 145.683 31.3473 136.491 31.3473Z" fill="#0075B6"/>
<path d="M75.7348 111.812C71.6258 111.812 67.5242 111.607 63.4445 111.168C47.3382 109.439 33.5831 103.99 23.6659 95.4056C13.5216 86.631 8.16016 75.1831 8.16016 62.3142C8.16016 33.7565 92.2512 29.4863 142.379 29.4863C152.025 29.4863 160.881 33.1631 167.304 39.8429C172.914 45.6658 175.969 53.1954 175.69 60.4978C175.441 66.9798 170.739 74.37 162.082 81.8482C143.881 97.5883 109.727 111.812 75.7348 111.812ZM142.386 30.065C56.208 30.065 8.75343 41.5203 8.75343 62.3069C8.75343 75.0073 14.0416 86.3014 24.054 94.9661C33.8833 103.47 47.5213 108.875 63.5177 110.589C101.143 114.632 141.405 98.9652 161.723 81.4013C170.131 74.1282 174.892 66.6941 175.134 60.4611C175.405 53.3198 172.409 45.9441 166.908 40.2311C160.58 33.6831 151.872 30.065 142.386 30.065Z" fill="#0076B8"/>
<path d="M76.2695 113.614C71.7577 113.614 67.2459 113.38 62.7707 112.889C45.8368 111.028 31.3931 105.316 21.0145 96.3798C10.3942 87.2317 4.77637 75.2929 4.77637 61.86C4.77637 47.5336 25.204 37.609 65.5027 32.3648C96.9682 28.2705 131.334 28.1973 146.737 28.1973C147.023 28.1973 147.301 28.1973 147.572 28.1973H148.283C158.222 28.1973 167.333 31.984 173.94 38.8543C179.66 44.809 182.773 52.4776 182.48 59.8898C182.216 66.511 177.331 74.099 168.351 81.8189C148.913 98.5478 112.525 113.614 76.2695 113.614ZM146.745 28.7906C131.356 28.7906 97.0194 28.8638 65.5833 32.9508C25.6288 38.1511 5.36964 47.8778 5.36964 61.86C5.36964 75.1171 10.9142 86.902 21.4027 95.933C31.6934 104.795 46.0199 110.457 62.8366 112.303C103.128 116.734 146.21 100.101 167.963 81.3722C176.687 73.8648 181.63 66.2254 181.887 59.8678C182.18 52.6167 179.126 45.1091 173.515 39.2643C167.026 32.5112 158.061 28.7906 148.283 28.7906H147.572C147.301 28.7906 147.023 28.7906 146.745 28.7906Z" fill="#0078B9"/>
<path d="M76.8038 115.416C71.8818 115.416 66.9671 115.159 62.0891 114.61C25.2182 110.465 1.39209 89.5829 1.39209 61.406C1.39209 46.6401 22.5742 36.4518 64.3523 31.1197C97.7661 26.8569 135.523 26.8936 151.659 26.9082H154.178C164.411 26.9082 173.778 30.7974 180.561 37.8654C186.398 43.952 189.562 51.7597 189.247 59.2819C188.962 66.0496 183.901 73.8354 174.606 81.7969C153.944 99.5073 115.323 115.416 76.8038 115.416ZM148.297 27.5088C130.718 27.5088 95.6713 27.7359 64.4329 31.7204C22.999 37.0085 1.99269 46.999 1.99269 61.4134C1.99269 89.2606 25.6065 109.915 62.155 114.017C105.068 118.836 151.007 101.236 174.218 81.3503C183.256 73.6084 188.376 65.7639 188.654 59.2672C188.962 51.9062 185.856 44.2596 180.129 38.2903C173.463 31.3395 164.249 27.5162 154.178 27.5162H151.659C150.626 27.5089 149.498 27.5088 148.297 27.5088Z" fill="#007ABB"/>
<path d="M77.3458 117.218C72.0137 117.218 66.6962 116.932 61.408 116.324C22.8892 111.915 -1.99902 90.1833 -1.99902 60.9518C-1.99902 56.6157 -0.189886 52.6166 3.37708 49.0643C27.1739 25.3187 124.031 25.5458 155.87 25.619C157.438 25.619 158.844 25.6264 160.075 25.6264C170.607 25.6264 180.231 29.6254 187.182 36.8911C193.137 43.1095 196.352 51.0491 196.023 58.6885C195.722 65.5953 190.478 73.5863 180.861 81.7969C158.976 100.467 118.128 117.218 77.3458 117.218ZM61.4813 115.723C107.039 120.931 155.819 102.364 180.466 81.3282C189.811 73.352 195.122 65.3025 195.415 58.6593C195.744 51.1885 192.58 43.4099 186.743 37.3087C179.909 30.1674 170.439 26.2343 160.075 26.2343C158.844 26.2343 157.438 26.2343 155.87 26.227C124.119 26.1538 27.4303 25.934 3.80919 49.4965C0.359417 52.939 -1.38376 56.7915 -1.38376 60.9591C-1.38376 89.8537 23.292 111.351 61.4813 115.723Z" fill="#007BBC"/>
<path d="M77.7487 119.012C72.1969 119.012 66.5058 118.719 60.7269 118.045C20.5674 113.372 -5.38281 90.7839 -5.38281 60.505C-5.38281 56.0591 -3.5224 51.9502 0.139787 48.3027C24.735 23.7954 126.675 24.1909 160.184 24.3227C162.396 24.33 164.337 24.3374 165.978 24.3374C176.803 24.3374 186.684 28.4464 193.811 35.9026C199.875 42.2528 203.149 50.3316 202.798 58.0808C202.475 65.1415 197.055 73.3373 187.116 81.7823C173.888 93.0325 154.047 103.367 132.689 110.135C119.029 114.464 99.4948 119.012 77.7487 119.012ZM60.8001 117.43C89.0942 120.719 115.411 114.962 132.498 109.542C153.783 102.796 173.544 92.5053 186.713 81.3063C196.374 73.0884 201.867 64.8265 202.175 58.0441C202.519 50.4634 199.304 42.5458 193.357 36.3201C186.347 28.9884 176.62 24.9454 165.971 24.9454C164.33 24.9454 162.389 24.938 160.177 24.9307C126.756 24.7989 24.9913 24.4107 0.571899 48.7276C-2.97309 52.2579 -4.76755 56.2131 -4.76755 60.4979C-4.76022 90.4545 20.9702 112.801 60.8001 117.43Z" fill="#007DBD"/>
<path d="M78.2341 120.814C72.3086 120.814 66.2294 120.492 60.055 119.767C18.2475 114.83 -8.76477 91.3924 -8.76477 60.0515C-8.76477 55.4811 -6.86044 51.2695 -3.09572 47.5267C22.3345 22.2357 125.659 22.8143 164.566 23.0194C167.408 23.0341 169.869 23.0488 171.876 23.0488C182.994 23.0488 193.139 27.2602 200.434 34.9142C206.615 41.3889 209.941 49.6142 209.575 57.4733C209.23 64.6878 203.634 73.0888 193.373 81.7828C179.471 93.5677 158.568 104.4 136.023 111.512C121.624 116.054 101.071 120.814 78.2341 120.814ZM60.1282 119.144C89.9603 122.667 117.764 116.61 135.826 110.919C158.297 103.829 179.12 93.0404 192.963 81.3068C202.939 72.8545 208.615 64.3801 208.945 57.4439C209.311 49.7534 206.037 41.7039 199.98 35.3464C192.802 27.8169 182.819 23.6714 171.876 23.6714C169.869 23.6714 167.408 23.6567 164.566 23.6421C125.74 23.4223 22.5982 22.8583 -2.6489 47.9663C-6.28911 51.5845 -8.13486 55.6495 -8.13486 60.0515C-8.14219 91.0482 18.6576 114.244 60.1282 119.144Z" fill="#007EBE"/>
<path d="M78.371 122.587C71.9914 122.587 65.6486 122.236 59.3716 121.481C38.292 118.954 20.4352 111.952 7.74941 101.229C-5.27331 90.221 -12.1582 75.8285 -12.1582 59.5977C-12.1582 54.9028 -10.1953 50.5816 -6.32799 46.7436C19.9592 20.6396 128.243 21.4232 168.995 21.7161C172.467 21.7381 175.419 21.7601 177.763 21.7601C189.174 21.7601 199.575 26.0816 207.045 33.9333C213.337 40.5399 216.721 48.9042 216.333 56.8731C215.974 64.2414 210.188 72.8549 199.611 81.7906C174.584 102.936 125.906 122.587 78.371 122.587ZM59.4521 120.851C112.341 127.18 170.922 105.192 199.216 81.2999C209.506 72.6059 215.366 63.9193 215.71 56.8366C216.091 49.0362 212.766 40.8474 206.599 34.3653C199.245 26.6455 189.013 22.3901 177.777 22.3901C175.426 22.3901 172.474 22.3681 169.003 22.3461C128.316 22.0531 20.2301 21.2767 -5.87389 47.1903C-9.61664 50.9038 -11.5137 55.0786 -11.5137 59.5977C-11.5137 75.6381 -4.70932 89.8621 8.16691 100.746C20.7575 111.396 38.4898 118.347 59.4521 120.851Z" fill="#0080BF"/>
<path d="M78.8981 124.389C72.123 124.389 65.3627 124.008 58.6902 123.202C36.7757 120.551 18.245 113.285 5.09044 102.203C-8.40836 90.8287 -15.5496 75.9382 -15.5496 59.1434C-15.5496 54.324 -13.5354 49.8854 -9.5656 45.9522C17.6005 19.0279 130.85 20.0312 173.47 20.4048C177.55 20.4414 180.992 20.4707 183.658 20.4707C195.363 20.4707 206.02 24.902 213.666 32.9442C220.075 39.6826 223.51 48.1789 223.108 56.265C222.727 63.7871 216.765 72.6129 205.866 81.7976C179.63 103.895 128.682 124.389 78.8981 124.389ZM152.025 20.9323C101.113 20.9323 14.1141 23.3931 -9.10416 46.4136C-12.9495 50.2223 -14.8977 54.5071 -14.8977 59.1434C-14.8977 75.7404 -7.83705 90.455 5.51527 101.705C18.5746 112.706 36.9881 119.921 58.7781 122.558C114.253 129.282 175.755 106.312 205.463 81.2996C216.223 72.2394 222.111 63.5674 222.478 56.2283C222.873 48.3254 219.504 39.9976 213.22 33.3837C205.697 25.4734 195.202 21.1081 183.673 21.1081C181.007 21.1081 177.565 21.0787 173.478 21.0421C167.552 20.9981 160.257 20.9323 152.025 20.9323Z" fill="#0080C1"/>
<path d="M79.4352 126.198C72.2499 126.198 65.094 125.788 58.0187 124.923C35.2766 122.14 16.0574 114.618 2.44143 103.177C-11.5408 91.4289 -18.9311 76.0477 -18.9311 58.6963C-18.9311 53.7524 -16.8656 49.2039 -12.7859 45.1682C15.2664 17.4016 133.489 18.6395 177.992 19.1009C182.606 19.1522 186.591 19.1887 189.557 19.1887C201.554 19.1887 212.468 23.7225 220.29 31.9624C226.809 38.8326 230.31 47.4681 229.878 55.6641C229.482 63.34 223.337 72.3856 212.109 81.812C184.686 104.854 131.453 126.19 79.4352 126.198ZM152.877 19.5916C99.4014 19.5916 11.26 22.3016 -12.3171 45.6298C-16.265 49.541 -18.2645 53.9355 -18.2645 58.6963C-18.2645 75.85 -10.9548 91.0554 2.87359 102.679C16.3944 114.039 35.489 121.51 58.1066 124.279C65.1526 125.143 72.2939 125.546 79.4571 125.546C131.321 125.546 184.364 104.276 211.713 81.3067C222.795 71.9974 228.86 63.1203 229.248 55.6274C229.665 47.6146 226.237 39.1477 219.836 32.4092C212.138 24.3012 201.393 19.8407 189.579 19.8407C186.613 19.8407 182.621 19.7967 178.006 19.7527C171.158 19.6795 162.589 19.5916 152.877 19.5916Z" fill="#0080C2"/>
<path d="M79.962 128C72.3666 128 64.8078 127.568 57.337 126.645C33.7672 123.73 13.8669 115.951 -0.210548 104.152C-14.6688 92.0298 -22.3155 76.158 -22.3155 58.2426C-22.3155 53.1741 -20.1914 48.5012 -16.0092 44.3703C12.9514 15.7613 136.162 17.2262 182.547 17.7828C187.733 17.8414 192.208 17.8999 195.467 17.8999C207.757 17.8999 218.934 22.5437 226.925 30.974C233.561 37.9761 237.114 46.7506 236.667 55.0564C236.249 62.8935 229.921 72.1515 218.37 81.827C189.725 105.814 134.228 128 79.962 128ZM153.711 18.2368C97.7675 18.2368 8.41756 21.1666 -15.5404 44.8463C-19.5908 48.8527 -21.649 53.3646 -21.649 58.2499C-21.649 75.9602 -14.0902 91.6563 0.221609 103.646C14.2038 115.365 33.9796 123.093 57.4249 125.993C64.8664 126.916 72.4178 127.348 79.9839 127.348C134.089 127.348 189.395 105.236 217.946 81.329C229.35 71.778 235.597 62.6884 236 55.0344C236.432 46.9117 232.953 38.3129 226.442 31.4427C218.576 23.1442 207.574 18.5737 195.467 18.5737C192.208 18.5737 187.733 18.5225 182.54 18.4566C174.805 18.3541 164.925 18.2368 153.711 18.2368Z" fill="#0080C3"/>
<path d="M80.4967 129.808C72.4985 129.808 64.5296 129.347 56.6559 128.365C32.2585 125.318 11.6697 117.276 -2.86918 105.125C-17.8109 92.6295 -25.7065 76.2668 -25.7065 57.7947C-25.7065 52.5944 -23.5312 47.8117 -19.2318 43.5782C-6.42147 30.9364 25.7325 22.572 76.3292 18.712C117.866 15.5479 161.211 16.1265 187.118 16.4781C193.102 16.5586 197.826 16.6245 201.356 16.6245C213.939 16.6245 225.373 21.378 233.539 30.0061C240.285 37.1327 243.896 46.0538 243.435 54.4694C242.995 62.4677 236.491 71.9455 224.611 81.8627C194.764 106.78 137.004 129.808 80.4967 129.808ZM56.7438 127.691C119.997 135.587 190.216 109.695 224.186 81.328C235.912 71.528 242.336 62.2261 242.768 54.4183C243.222 46.1857 239.677 37.4478 233.056 30.453C225.014 21.9641 213.756 17.2838 201.363 17.2838C197.826 17.2838 193.102 17.2178 187.11 17.1372C138.916 16.4926 10.908 14.7787 -18.7557 44.0469C-22.9159 48.1559 -25.0254 52.7775 -25.0254 57.7874C-25.0254 76.0544 -17.2103 92.2413 -2.42969 104.605C12.0066 116.675 32.4709 124.659 56.7438 127.691Z" fill="#0081C4"/>
<path d="M81.0291 131.61C72.6207 131.61 64.2416 131.119 55.9724 130.079C3.50064 123.466 -29.1001 95.5963 -29.1001 57.3338C-29.1001 52.009 -26.8662 47.1015 -22.4642 42.7655C8.32008 12.4353 136.819 14.3324 191.708 15.1454C198.27 15.2406 203.448 15.3211 207.25 15.3211C220.133 15.3211 231.816 20.1773 240.158 29.0032C247.021 36.2616 250.683 45.3145 250.207 53.8474C249.753 62.014 243.059 71.6969 230.864 81.8631C199.808 107.747 139.778 131.61 81.0291 131.61ZM56.0603 129.405C121.899 137.704 195.033 110.831 230.424 81.3431C242.473 71.3014 249.079 61.7796 249.526 53.8107C249.995 45.4683 246.399 36.5985 239.667 29.4719C231.457 20.7852 219.943 16.0024 207.257 16.0024C203.448 16.0024 198.27 15.929 191.708 15.8265C164.717 15.431 119.533 14.7572 76.5026 17.958C24.2579 21.8399 -8.87754 30.3508 -21.9735 43.249C-26.2436 47.4532 -28.4043 52.1921 -28.4043 57.3338C-28.4116 95.2227 3.96208 122.836 56.0603 129.405Z" fill="#0083C5"/>
<path d="M81.6317 133.426C73.0402 133.426 64.229 132.928 55.3006 131.8C1.1589 124.923 -32.4819 96.2187 -32.4819 56.8868C-32.4819 51.4302 -30.1894 46.4058 -25.6776 41.9672C6.02958 10.7654 139.377 12.9113 196.317 13.8342C203.451 13.9514 209.09 14.0393 213.148 14.0393C226.324 14.0393 238.263 19.0053 246.781 28.0216C253.754 35.4119 257.475 44.6039 256.977 53.2466C256.501 61.5744 249.623 71.4844 237.099 81.8923C218.48 97.376 190.127 111.688 159.321 121.173C139.809 127.179 112.16 133.426 81.6317 133.426ZM55.3885 131.112C95.9288 136.261 134.177 128.19 159.131 120.506C189.856 111.051 218.114 96.7828 236.674 81.3576C249.045 71.0669 255.834 61.3327 256.303 53.2027C256.787 44.7503 253.139 35.7414 246.291 28.4903C237.904 19.6131 226.141 14.7277 213.163 14.7277C209.098 14.7277 203.458 14.64 196.317 14.5228C139.458 13.6073 6.32255 11.4612 -25.1795 42.4579C-29.5595 46.7646 -31.7788 51.6206 -31.7788 56.8868C-31.7861 95.8451 1.61301 124.286 55.3885 131.112Z" fill="#0085C7"/>
<path d="M82.1223 135.236C73.15 135.236 63.9432 134.716 54.6193 133.522C-1.19233 126.381 -35.8659 96.8419 -35.8659 56.4334C-35.8659 50.8449 -33.5221 45.7032 -28.8931 41.1621C3.74427 9.08866 141.948 11.4838 200.953 12.5092C208.658 12.6411 214.737 12.7508 219.051 12.7508C232.521 12.7508 244.723 17.8266 253.41 27.0407C260.5 34.5555 264.272 43.894 263.759 52.6466C263.261 61.1429 256.208 71.2651 243.354 81.9294C224.061 97.9331 194.646 112.75 162.661 122.565C142.402 128.776 113.742 135.236 82.1223 135.236ZM54.7072 132.827C96.7637 138.203 136.513 129.845 162.449 121.891C194.346 112.099 223.673 97.3399 242.899 81.3874C255.6 70.855 262.573 60.9013 263.056 52.6028C263.561 44.0406 259.855 34.8925 252.897 27.5168C244.342 18.442 232.323 13.4539 219.051 13.4539C214.73 13.4539 208.643 13.3515 200.938 13.2123C142.021 12.1869 4.02259 9.79175 -28.4024 41.6601C-32.8922 46.0693 -35.1628 51.0427 -35.1628 56.4334C-35.1628 96.4611 -0.723579 125.729 54.7072 132.827Z" fill="#0086C8"/>
<path d="M82.6104 137.039C73.2571 137.039 63.6549 136.496 53.9354 135.244C-3.54617 127.839 -39.2598 97.465 -39.2598 55.9871C-39.2598 50.2668 -36.8574 45.008 -32.1185 40.357C1.44905 7.40471 144.501 10.0561 205.586 11.1914C213.856 11.3452 220.382 11.4623 224.945 11.4623C238.707 11.4623 251.166 16.6407 260.028 26.0525C267.236 33.6992 271.059 43.1769 270.532 52.0467C270.012 60.7041 262.775 71.046 249.599 81.9593C229.632 98.4904 199.156 113.791 165.991 123.95C144.999 130.366 115.328 137.039 82.6104 137.039ZM54.0307 134.534C97.618 140.151 138.854 131.501 165.779 123.261C198.855 113.132 229.237 97.8751 249.137 81.4026C262.16 70.6212 269.316 60.4477 269.821 51.9954C270.341 43.3233 266.584 34.0433 259.508 26.5359C250.785 17.2705 238.509 12.1727 224.945 12.1727C220.374 12.1727 213.841 12.0483 205.572 11.9018C144.574 10.7665 1.73472 8.12246 -31.6204 40.8624C-36.2128 45.3742 -38.5493 50.4645 -38.5493 55.9871C-38.542 97.0768 -3.07008 127.18 54.0307 134.534Z" fill="#0088C9"/>
<path d="M83.1108 138.84C73.3767 138.84 63.379 138.269 53.264 136.957C-5.89486 129.289 -42.6412 98.0871 -42.6412 55.5252C-42.6412 49.673 -40.1802 44.2896 -35.3315 39.5361C-0.826397 5.6975 147.089 8.61258 210.247 9.85773C219.073 10.0335 226.038 10.1653 230.851 10.1653C244.906 10.1653 257.621 15.4535 266.659 25.0558C273.976 32.8343 277.858 42.4438 277.316 51.4308C276.782 60.2567 269.355 70.8184 255.841 81.9807C235.201 99.0318 203.663 114.83 169.326 125.326C147.602 131.962 116.913 138.84 83.1108 138.84ZM155.952 9.92371C85.4473 9.92371 -8.38514 14.1351 -34.8261 40.0561C-39.5283 44.6704 -41.9161 49.8781 -41.9161 55.5252C-41.9161 97.6916 -5.40413 128.622 53.3593 136.24C98.4773 142.092 141.208 133.156 169.106 124.63C203.362 114.164 234.806 98.4166 255.373 81.4241C268.725 70.3936 276.057 60.0076 276.584 51.3868C277.119 42.6049 273.31 33.1858 266.125 25.5538C257.226 16.098 244.701 10.8904 230.843 10.8904C226.031 10.8904 219.058 10.7513 210.225 10.5828C195.789 10.2972 176.892 9.92371 155.952 9.92371Z" fill="#008ACA"/>
<path d="M83.6017 140.649C73.4794 140.649 63.0935 140.056 52.583 138.679C-8.24582 130.746 -46.0322 98.7094 -46.0322 55.0782C-46.0322 49.0942 -43.52 43.5935 -38.554 38.7302C-3.10411 4.01267 149.667 7.18414 214.906 8.53182C224.288 8.72958 231.693 8.88338 236.74 8.88338C251.088 8.88338 264.059 14.2814 273.273 24.0741C280.708 31.9844 284.641 41.7332 284.077 50.83C283.52 59.8243 275.91 70.6059 262.075 82.0172C240.761 99.5957 208.167 115.885 172.644 126.711C150.195 133.551 118.502 140.649 83.6017 140.649ZM156.692 8.52449C84.1291 8.52449 -11.1463 12.9119 -38.0413 39.2577C-42.8534 43.9746 -45.2998 49.2993 -45.2998 55.0782C-45.2998 98.3139 -7.75508 130.072 52.6783 137.961C99.3125 144.047 143.537 134.826 172.432 126.022C207.86 115.226 240.365 98.9805 261.613 81.4679C275.295 70.1884 282.81 59.5828 283.352 50.7935C283.901 41.9018 280.034 32.3435 272.739 24.587C263.671 14.9408 250.883 9.62314 236.74 9.62314C231.686 9.62314 224.273 9.46935 214.891 9.27159C199.48 8.94199 179.177 8.52449 156.692 8.52449Z" fill="#008CCC"/>
<path d="M84.3996 142.501C73.8013 142.501 62.9173 141.864 51.9014 140.399C-10.5974 132.32 -49.4165 99.4557 -49.4165 54.6233C-49.4165 48.5001 -46.8457 42.8823 -41.7699 37.9164C-5.38242 2.30529 152.26 5.74046 219.578 7.20534C229.51 7.42507 237.354 7.59337 242.635 7.59337C257.277 7.59337 270.504 13.0941 279.887 23.0845C287.431 31.1193 291.43 41.0146 290.844 50.2213C290.266 59.428 282.406 70.4951 268.131 82.2214C246.085 100.335 212.43 117.107 175.793 128.233C152.721 135.25 120.194 142.501 84.3996 142.501ZM157.438 7.11736C82.8395 7.11736 -13.8933 11.6805 -41.2498 38.4437C-46.1791 43.2631 -48.6767 48.7052 -48.6767 54.6233C-48.6767 99.0529 -10.0993 131.639 51.9967 139.666C100.066 146.061 145.741 136.597 175.581 127.53C212.129 116.426 245.689 99.7047 267.663 81.6501C281.777 70.0556 289.54 59.1716 290.104 50.1773C290.668 41.1757 286.75 31.4855 279.345 23.5972C270.102 13.7532 257.064 8.33314 242.628 8.33314C237.34 8.33314 229.488 8.16484 219.556 7.9451C203.186 7.59353 181.462 7.11736 157.438 7.11736Z" fill="#008ECD"/>
<path d="M84.8707 144.304C73.8988 144.304 62.6266 143.645 51.2226 142.121C-12.9461 133.764 -52.8054 100.072 -52.8054 54.1777C-52.8054 47.9227 -50.1759 42.1803 -44.9903 37.1119C-7.65796 0.61455 154.862 4.30612 224.261 5.88818C234.742 6.12989 243.018 6.31287 248.534 6.31287C263.468 6.31287 276.96 11.9234 286.51 22.1116C294.172 30.2782 298.222 40.3054 297.629 49.6293C297.028 58.9971 288.993 70.284 274.396 82.2594C251.676 100.893 216.966 118.156 179.15 129.626C155.324 136.833 121.778 144.297 84.8707 144.304ZM158.195 5.7124C81.5821 5.7124 -16.6303 10.4438 -44.4629 37.6465C-49.5021 42.5685 -52.0583 48.1351 -52.0583 54.1777C-52.0583 99.662 -12.4481 133.083 51.3252 141.382C100.926 148.01 148.095 138.254 178.923 128.901C216.651 117.46 251.273 100.248 273.913 81.6734C288.349 69.8372 296.289 58.7334 296.875 49.5779C297.453 40.5983 293.373 30.5199 285.961 22.6169C276.549 12.5825 263.256 7.05997 248.534 7.05997C243.011 7.05997 234.727 6.86966 224.246 6.63528C206.917 6.23244 183.75 5.7124 158.195 5.7124Z" fill="#0090CE"/>
<path d="M85.3441 146.106C73.9914 146.106 62.3383 145.425 50.5461 143.843C18.6924 139.668 -8.04152 129.319 -26.7553 113.908C-46.011 98.0583 -56.1919 77.2425 -56.1919 53.724C-56.1919 47.3371 -53.5038 41.4703 -48.201 36.2993C-9.91655 -1.09161 157.474 2.87081 228.953 4.56274C239.983 4.82642 248.692 5.03142 254.434 5.03142C269.662 5.03142 283.41 10.7519 293.136 21.1305C300.798 29.3045 305.009 39.7343 304.401 49.0289C303.779 58.5653 295.568 70.0646 280.641 82.289C257.254 101.442 221.475 119.196 182.48 131.003C157.929 138.423 123.35 146.099 85.3441 146.106ZM158.961 4.29899C80.3416 4.29899 -19.365 9.19911 -47.6663 36.8339C-52.8154 41.8658 -55.4228 47.5422 -55.4228 53.724C-55.4228 77.0081 -45.3445 97.6188 -26.2645 113.322C-7.66064 128.637 18.9414 138.935 50.6559 143.088C101.787 149.937 150.45 139.902 182.275 130.271C221.182 118.493 256.859 100.79 280.172 81.6957C294.923 69.6105 303.046 58.2942 303.654 48.9776C304.247 39.8881 300.109 29.6707 292.594 21.6432C283.014 11.4184 269.464 5.78585 254.449 5.78585C248.692 5.78585 239.976 5.58085 228.946 5.31717C210.642 4.87771 186.047 4.29899 158.961 4.29899Z" fill="#0691CF"/>
<path d="M85.8128 147.9C74.0865 147.9 62.0452 147.19 49.8648 145.556C17.1762 141.249 -10.2389 130.637 -29.4141 114.875C-49.1532 98.6511 -59.5831 77.3444 -59.5831 53.2692C-59.5831 46.7505 -56.8365 40.7592 -51.4238 35.4783C-12.1945 -2.80615 160.075 1.41999 233.64 3.2291C245.213 3.51475 254.354 3.73462 260.323 3.73462C275.843 3.73462 289.848 9.55741 299.75 20.1338C307.521 28.4396 311.791 39.0088 311.169 48.4132C310.524 58.118 302.131 69.8368 286.889 82.3029C262.828 101.976 225.994 120.229 185.82 132.365C160.529 140.012 124.932 147.9 85.8128 147.9ZM159.73 2.87755C79.1257 2.87755 -22.1044 7.93868 -50.8818 36.0203C-56.1407 41.1547 -58.8141 46.9556 -58.8141 53.2619C-58.8141 77.1027 -48.4794 98.2042 -28.9233 114.274C-9.85802 129.948 17.4252 140.495 49.9674 144.787C102.63 151.87 152.787 141.535 185.6 131.625C225.679 119.511 262.425 101.317 286.405 81.7024C301.479 69.3755 309.777 57.8396 310.407 48.3546C311.015 39.1552 306.826 28.7985 299.194 20.6465C289.445 10.2239 275.638 4.48887 260.33 4.48887C254.346 4.48887 245.206 4.26186 233.626 3.98354C214.377 3.51478 188.347 2.87755 159.73 2.87755Z" fill="#0693D1"/>
<path d="M86.2891 149.703C74.1819 149.703 61.7598 148.97 49.1912 147.271C15.6749 142.825 -12.4214 131.956 -32.058 115.835C-52.2732 99.2378 -62.9595 77.4479 -62.9595 52.8087C-62.9595 46.1509 -60.1542 40.0423 -54.6243 34.6516C-14.4429 -4.52642 162.712 -0.0292414 238.358 1.88974C250.472 2.19737 260.038 2.43907 266.234 2.43907C282.055 2.43907 296.308 8.37167 306.386 19.1458C314.267 27.5762 318.596 38.2918 317.959 47.8061C317.292 57.6794 308.715 69.618 293.151 82.3331C268.424 102.526 230.52 121.27 189.167 133.743C163.129 141.602 126.507 149.703 86.2891 149.703ZM160.507 1.46487C77.932 1.46487 -24.8288 6.6872 -54.0897 35.2156C-59.4658 40.4525 -62.1904 46.3778 -62.1904 52.8159C-62.1904 77.2134 -51.5994 98.7984 -31.5746 115.242C-12.0478 131.267 15.9093 142.078 49.2864 146.509C103.487 153.819 155.138 143.199 188.933 133.003C230.191 120.552 267.999 101.867 292.646 81.7327C308.042 69.1567 316.523 57.4083 317.168 47.7622C317.79 38.4529 313.542 27.957 305.808 19.6805C295.883 9.06747 281.828 3.22265 266.227 3.22265C260.016 3.22265 250.443 2.98094 238.328 2.67332C218.12 2.16061 190.654 1.46487 160.507 1.46487Z" fill="#1195D2"/>
<path d="M86.7505 151.504C74.2771 151.504 61.4594 150.742 48.51 148.991C14.1587 144.413 -14.6187 133.28 -34.7168 116.808C-55.4154 99.8448 -66.3507 77.5567 -66.3507 52.3609C-66.3507 45.5712 -63.4869 39.3382 -57.8471 33.8376C-16.7135 -6.23403 165.326 -1.47314 243.06 0.563033C255.709 0.892629 265.707 1.15635 272.13 1.15635C288.207 1.15635 302.702 7.17691 312.941 18.1122C320.954 26.6744 325.364 37.5437 324.726 47.2045C324.023 57.2682 315.212 69.456 299.252 82.4495C273.815 103.148 234.864 122.36 192.382 135.156C165.634 143.198 128.038 151.504 86.7505 151.504ZM161.291 0.0430315C76.7527 0.0430315 -27.5536 5.42638 -57.2978 34.4089C-62.7837 39.7557 -65.567 45.7983 -65.567 52.3683C-65.567 77.3224 -54.727 99.3979 -34.2187 116.207C-14.2379 132.592 14.4077 143.659 48.6125 148.222C104.292 155.759 157.401 144.868 192.148 134.401C234.541 121.642 273.39 102.482 298.747 81.8415C314.531 68.9946 323.24 56.9972 323.928 47.1532C324.551 37.7121 320.222 27.0625 312.356 18.6542C302.27 7.88004 287.98 1.94726 272.115 1.94726C265.685 1.94726 255.687 1.68372 243.023 1.35412C221.87 0.79747 192.968 0.0430315 161.291 0.0430315Z" fill="#1897D3"/>
<path d="M87.2284 153.306C74.3742 153.306 61.1757 152.522 47.838 150.713C12.6591 145.996 -16.8068 134.606 -37.3663 117.775C-58.5411 100.438 -69.74 77.6594 -69.74 51.9069C-69.74 44.9781 -66.8176 38.628 -61.0606 33.0176C-18.9748 -7.95494 167.95 -2.9232 247.771 -0.777161C260.962 -0.418267 271.385 -0.139855 278.028 -0.139855C294.405 -0.139855 309.164 5.99051 319.572 17.1235C327.695 25.8102 332.155 36.8261 331.496 46.5894C330.771 56.8216 321.791 69.2219 305.517 82.457C279.42 103.683 239.399 123.385 195.732 136.511C168.251 144.787 129.622 153.306 87.2284 153.306ZM162.083 -1.38514C75.5974 -1.38514 -30.269 4.15941 -60.504 33.596C-66.0998 39.0454 -68.9417 45.2052 -68.9417 51.9143C-68.9417 77.425 -57.8526 99.9842 -36.8609 117.167C-16.4186 133.903 12.9081 145.234 47.9405 149.929C105.158 157.693 159.769 146.508 195.505 135.764C239.077 122.66 278.995 103.009 305.018 81.849C321.117 68.7604 330.002 56.5507 330.705 46.5456C331.35 37.002 326.97 26.2131 318.993 17.6802C308.732 6.7083 294.186 0.665718 278.028 0.665718C271.37 0.665718 260.948 0.387485 247.749 0.0285909C225.637 -0.564683 195.285 -1.38514 162.083 -1.38514Z" fill="#1F98D4"/>
<path d="M87.6971 155.108C74.4619 155.108 60.8826 154.302 47.1494 152.434C11.1355 147.586 -19.0116 135.933 -40.0252 118.75C-61.6834 101.039 -73.1313 77.77 -73.1313 51.4609C-73.1313 44.4002 -70.1503 37.9181 -64.2835 32.2125C-21.2382 -9.65362 170.572 -4.35817 252.481 -2.09494C266.206 -1.71407 277.054 -1.41364 283.917 -1.41364C300.594 -1.41364 315.609 4.82672 326.193 16.1648C334.426 24.9834 338.937 36.131 338.264 46.0043C337.524 56.4049 328.361 69.0246 311.771 82.5015C285.008 104.248 243.933 124.441 199.079 137.91C170.865 146.377 131.204 155.108 87.6971 155.108ZM162.882 -2.80538C74.4546 -2.80538 -32.9792 2.89305 -63.7122 32.7911C-69.4252 38.3503 -72.3183 44.6273 -72.3183 51.4682C-72.3183 77.5283 -60.9729 100.585 -39.5125 118.135C-18.6088 135.23 11.3991 146.817 47.2666 151.644C106.015 159.634 162.127 148.164 198.859 137.134C243.618 123.694 284.591 103.552 311.281 81.8717C327.695 68.5413 336.747 56.1192 337.473 45.9456C338.132 36.2994 333.701 25.3716 325.622 16.7142C315.192 5.5445 300.382 -0.60807 283.931 -0.60807C277.054 -0.60807 266.206 -0.908319 252.473 -1.28919C229.402 -1.93373 197.599 -2.80538 162.882 -2.80538Z" fill="#239BD5"/>
<path d="M88.1732 156.909C74.5646 156.909 60.597 156.074 46.4756 154.147C9.63403 149.159 -21.1942 137.257 -42.6766 119.715C-64.8108 101.639 -76.5151 77.8786 -76.5151 51.0055C-76.5151 43.8057 -73.4755 37.2066 -67.4915 31.3837C-23.4941 -11.3906 173.209 -5.81678 257.205 -3.43636C271.465 -3.03352 282.738 -2.71125 289.813 -2.71125C306.791 -2.71125 322.062 3.63891 332.822 15.1748C341.164 24.1178 345.727 35.412 345.039 45.3878C344.284 55.9495 334.946 68.7891 318.041 82.5076C291.014 104.444 247.793 125.663 202.433 139.271C173.473 147.958 132.793 156.909 88.1732 156.909ZM163.68 -4.24211C73.3194 -4.24211 -35.6965 1.61001 -66.9275 31.9695C-72.7504 37.6312 -75.7021 44.0327 -75.7021 51.0055C-75.7021 77.6223 -64.1076 101.163 -42.1638 119.086C-20.806 136.532 9.88307 148.383 46.5781 153.342C106.858 161.567 164.478 149.804 202.199 138.488C247.464 124.909 290.575 103.748 317.528 81.8778C334.25 68.3058 343.486 55.6638 344.226 45.3291C344.907 35.5731 340.417 24.506 332.228 15.7314C321.623 4.36403 306.564 -1.89835 289.813 -1.89835C282.716 -1.89835 271.451 -2.22061 257.176 -2.62346C233.174 -3.2973 199.921 -4.24211 163.68 -4.24211Z" fill="#289CD6"/>
<path d="M88.647 158.711C74.6647 158.711 60.3017 157.854 45.7921 155.869C8.11556 150.75 -23.3938 138.584 -45.3303 120.683C-67.9479 102.233 -79.9013 77.9819 -79.9013 50.5522C-79.9013 43.2205 -76.8031 36.4967 -70.7019 30.5639C-25.745 -13.1039 175.851 -7.25906 261.934 -4.76878C276.729 -4.33664 288.419 -3.99969 295.714 -3.99969C312.985 -3.99969 328.52 2.46029 339.455 14.1939C347.907 23.2615 352.529 34.6948 351.811 44.7805C351.035 55.5107 341.528 68.5627 324.308 82.5303C296.622 104.979 252.317 126.704 205.793 140.642C176.085 149.548 134.38 158.711 88.647 158.711ZM164.491 -5.66966C72.2038 -5.66966 -38.4015 0.336337 -70.1306 31.1573C-76.0634 36.9215 -79.081 43.4475 -79.081 50.5522C-79.081 77.7256 -67.2302 101.757 -44.8103 120.046C-22.991 137.844 8.37926 149.951 45.9093 155.056C107.727 163.508 166.849 151.453 205.558 139.858C251.988 125.949 296.19 104.276 323.796 81.8932C340.832 68.0794 350.237 55.2252 350.998 44.7293C351.694 34.8707 347.153 23.6643 338.855 14.7652C328.08 3.20007 312.758 -3.16479 295.714 -3.16479C288.404 -3.16479 276.715 -3.50174 261.905 -3.93388C236.943 -4.66632 202.248 -5.66966 164.491 -5.66966Z" fill="#2C9ED8"/>
<path d="M89.1176 160.512C74.7545 160.512 60.0106 159.634 45.1128 157.59C6.60863 152.331 -25.5893 139.909 -47.9872 121.657C-71.0809 102.833 -83.2906 78.0914 -83.2906 50.105C-83.2906 42.6341 -80.1411 35.7858 -73.9228 29.7506C-28.0063 -14.8255 178.482 -8.70964 266.66 -6.09484C281.99 -5.64073 294.097 -5.28175 301.612 -5.28175C319.183 -5.28175 334.982 1.28821 346.086 13.2196C354.648 22.419 359.321 33.9915 358.588 44.1797C357.797 55.0784 348.107 68.35 330.573 82.552C302.235 105.514 256.846 127.743 209.149 142.011C178.702 151.13 135.964 160.512 89.1176 160.512ZM165.306 -7.10551C71.0997 -7.10551 -41.1096 -0.94581 -73.3368 30.3439C-79.3867 36.218 -82.4556 42.8612 -82.4556 50.0977C-82.4556 77.8277 -70.3558 102.35 -47.4525 121.005C-25.1718 139.162 6.87962 151.526 45.2373 156.762C108.586 165.442 169.217 153.1 208.922 141.22C256.523 126.974 301.81 104.803 330.067 81.9075C347.419 67.8521 356.999 54.7853 357.775 44.121C358.493 34.1526 353.901 22.8145 345.492 13.7836C334.542 2.02066 318.964 -4.45419 301.627 -4.45419C294.097 -4.45419 281.99 -4.81298 266.653 -5.26709C240.725 -6.02883 204.572 -7.10551 165.306 -7.10551Z" fill="#30A0D9"/>
<path d="M89.5914 162.313C74.8548 162.313 59.7227 161.405 44.4367 159.311C5.09755 153.92 -27.7815 141.234 -50.6409 122.623C-74.218 103.426 -86.6841 78.1932 -86.6841 49.6501C-86.6841 42.0474 -83.476 35.0746 -77.1404 28.9295C-56.9691 9.35877 -4.13113 -2.85099 79.9306 -7.37012C149.549 -11.1129 225.817 -8.80576 271.389 -7.42878C287.247 -6.95269 299.779 -6.5717 307.506 -6.5717C325.377 -6.5717 341.432 0.108075 352.712 12.2445C361.384 21.5685 366.108 33.2802 365.361 43.5855C364.548 54.6526 354.689 68.1368 336.84 82.5878C322.968 93.816 304.671 105.191 283.936 115.467C261.765 126.461 237.734 135.858 212.502 143.395C181.314 152.719 137.544 162.313 89.5914 162.313ZM166.116 -8.53458C69.9987 -8.53458 -43.8219 -2.221 -76.5471 29.5301C-82.7069 35.5141 -85.8345 42.2818 -85.8345 49.6501C-85.8345 77.9368 -73.4783 102.942 -50.1062 121.971C-27.3714 140.48 5.36121 153.107 44.5539 158.475C109.44 167.389 171.566 154.755 212.267 142.589C261.033 128.013 307.403 105.337 336.313 81.9285C353.972 67.6313 363.735 54.345 364.526 43.5196C365.259 33.4485 360.615 21.9713 352.104 12.8159C340.986 0.855182 325.15 -5.72947 307.513 -5.72947C299.771 -5.72947 287.239 -6.11028 271.368 -6.58637C244.502 -7.39937 206.906 -8.53458 166.116 -8.53458Z" fill="#31A2DA"/>
<path d="M90.0695 164.116C74.952 164.116 59.439 163.186 43.7576 161.025C3.58343 155.495 -29.9695 142.553 -53.2903 123.59C-77.3435 104.027 -90.0659 78.2964 -90.0659 49.1967C-90.0659 41.4549 -86.7992 34.3575 -80.3465 28.1025C-59.765 8.14361 -5.75514 -4.28579 80.1889 -8.83422C151.382 -12.6063 229.474 -10.1965 276.13 -8.7609C292.522 -8.25552 305.464 -7.86002 313.411 -7.86002C331.583 -7.86002 347.895 -1.07043 359.35 11.2638C368.124 20.7122 372.907 32.5704 372.138 42.971C371.311 54.2066 361.269 67.9105 343.112 82.6032C313.463 106.583 265.898 129.823 215.865 144.765C183.931 154.309 139.135 164.116 90.0695 164.116ZM43.8747 160.19C110.285 169.331 173.926 156.411 215.616 143.959C265.547 129.047 313.009 105.865 342.57 81.9512C360.544 67.4124 370.475 53.9137 371.289 42.9199C372.043 32.7463 367.341 21.1298 358.72 11.8498C347.426 -0.308663 331.334 -7.00313 313.404 -7.00313C305.45 -7.00313 292.493 -7.39863 276.094 -7.90401C183.843 -10.7532 -32.1888 -17.4037 -79.7605 28.7251C-86.0375 34.8117 -89.2236 41.7039 -89.2236 49.204C-89.2236 78.0474 -76.6184 103.544 -52.7629 122.939C-29.5593 141.799 3.85441 154.682 43.8747 160.19Z" fill="#35A3DB"/>
</g>
</svg>
